PathFileType	4	(X/Y/Z)	C:\Users\dbl\Desktop\20210112\20210112\bx_n_0_501.trc
DataRate	CameraRate	NumFrames	NumMarkers	Units	OrigDataRate	OrigDataStartFrame	OrigNumFrames
50.00	50.00	       6	43	mm	50.00	128	       339
Frame#	Time	Top.Head			R.Acromium			L.Acromium			Sternum			R.ASIS			L.ASIS			V.Sacral			R.Thigh.Upper			R.Thigh.Front			R.Thigh.Rear			R.Knee.Lat			R.Knee.Med			R.Shank.Upper			R.Shank.Front			R.Shank.Rear			R.Ankle.Lat			R.Midfoot.Lat			R.Toe.Lat			R.Toe.Tip			R.Toe.Med			R.Ankle.Med			R.Midfoot.Sup			R.Heel			L.Thigh.Upper			L.Thigh.Front			L.Thigh.Rear			L.Knee.Lat			L.Knee.Med			L.Shank.Upper			L.Shank.Front			L.Shank.Rear			L.Ankle.Lat			L.Midfoot.Lat			L.Toe.Lat			L.Toe.Tip			L.Toe.Med			L.Ankle.Med			L.Midfoot.Sup			L.Heel			origin1 front left			origin2 front right			origin 3 back right			origin 4 back leftt			
		X1	Y1	Z1	X2	Y2	Z2	X3	Y3	Z3	X4	Y4	Z4	X5	Y5	Z5	X6	Y6	Z6	X7	Y7	Z7	X8	Y8	Z8	X9	Y9	Z9	X10	Y10	Z10	X11	Y11	Z11	X12	Y12	Z12	X13	Y13	Z13	X14	Y14	Z14	X15	Y15	Z15	X16	Y16	Z16	X17	Y17	Z17	X18	Y18	Z18	X19	Y19	Z19	X20	Y20	Z20	X21	Y21	Z21	X22	Y22	Z22	X23	Y23	Z23	X24	Y24	Z24	X25	Y25	Z25	X26	Y26	Z26	X27	Y27	Z27	X28	Y28	Z28	X29	Y29	Z29	X30	Y30	Z30	X31	Y31	Z31	X32	Y32	Z32	X33	Y33	Z33	X34	Y34	Z34	X35	Y35	Z35	X36	Y36	Z36	X37	Y37	Z37	X38	Y38	Z38	X39	Y39	Z39	X40	Y40	Z40	X41	Y41	Z41	X42	Y42	Z42	X43	Y43	Z43	

128	2.540	-206.35616	115.08142	1611.23584	-363.43353	-75.93306	1359.88464	-387.77524	277.09198	1374.16833	-447.71194	99.13937	1167.71387	-671.40173	-5.08048	1008.59894	-666.61676	235.54726	1027.04297	-847.17694	94.67688	1107.03040	-751.46271	-72.93295	871.29846	-667.90186	1.59234	808.52704	-753.19702	-60.81935	755.22308	-749.05292	-33.25255	616.73779				-750.20276	-29.63926	569.16327				-781.34601	-48.24803	486.18439				-641.52423	-59.63264	163.00839	-599.63794	-62.25056	157.40822	-546.24866	-10.05378	161.85162	-600.90356	38.68068	165.93681	-726.70807	68.67107	216.96974	-677.57996	56.86188	159.58948				-768.70007	288.02985	874.79193	-671.33417	214.41908	793.21899				-781.75623	258.45316	636.73999							-720.29095	199.46307	537.60687	-798.70837	265.49686	495.10852																																					
129	2.560	-206.55121	114.91180	1610.60413	-363.58502	-76.05615	1359.57751	-387.92340	276.94925	1373.89172	-448.89191	99.07193	1167.77429	-672.07056	-5.58888	1009.28790	-667.07990	235.81895	1027.17676	-847.57922	94.70848	1106.94202	-752.26813	-73.21004	871.47382	-668.34833	1.67458	808.49323	-753.91357	-60.78121	755.44086	-749.45612	-33.30756	616.63147				-750.39264	-29.58391	569.23706				-781.62067	-48.09318	485.93704				-641.39954	-59.63538	163.12573	-599.47241	-62.32908	157.52301	-546.17987	-10.02147	161.86252	-600.96967	38.64687	165.98834	-726.79138	68.66159	217.22661	-677.63000	56.81398	159.32800				-769.38599	288.23846	874.44098	-671.99921	214.68867	793.17816				-782.01849	258.29782	636.62445							-720.62177	199.35541	537.45850	-798.73535	265.50665	494.89285																																					
130	2.580	-206.76212	114.92958	1610.21838	-364.14612	-76.17384	1359.41187	-388.51450	276.52704	1373.40186	-449.02509	98.79266	1167.65820	-672.90918	-5.19221	1008.78595	-667.68799	235.68460	1026.95898	-848.24841	94.92061	1106.82007	-753.15503	-73.34352	871.66028	-668.74310	1.57430	808.50818	-754.44330	-60.74623	755.27856	-749.64301	-33.29622	616.61145				-750.46637	-29.45962	569.14368				-781.89026	-47.90562	485.96573				-641.39954	-59.63538	163.12573	-599.63794	-62.25056	157.40822	-545.96759	-10.24580	161.72116	-600.89972	38.78186	166.04639	-726.63062	69.21417	217.26442	-677.69739	56.83186	159.44615				-769.61987	288.44778	874.46057	-672.20978	214.75043	792.91418				-782.29248	258.35999	636.54083							-720.90643	199.59264	537.59802	-798.84589	265.49127	494.96182																																					
131	2.600	-207.02208	115.02180	1609.92883	-365.09665	-76.41282	1359.07739	-388.77750	276.47385	1373.21008	-449.90967	99.13126	1166.43799	-673.64636	-5.20731	1008.37933	-668.31281	235.82631	1026.95178	-848.91907	94.95554	1106.60962	-753.56995	-73.11987	871.83356	-669.32556	1.48694	808.28882	-754.97827	-60.83047	755.23877	-750.05396	-33.13933	616.65295				-750.79822	-29.34767	568.85284				-782.20471	-47.94528	486.03394				-641.39954	-59.63538	163.12573	-599.42841	-62.18716	157.71077	-546.09631	-10.31105	161.55952	-600.90356	38.68068	165.93681	-726.54810	68.91161	217.13011	-677.54187	56.79240	159.45909				-770.09857	288.44415	874.43646	-672.69775	214.85651	793.34528				-782.82513	258.30136	636.28583							-721.28967	199.66788	537.42346	-798.94690	265.53778	494.61389																																					
132	2.620	-207.65346	114.68121	1609.39917	-365.31625	-76.46484	1359.00781	-388.88593	276.47614	1372.72253	-450.40137	99.31501	1166.11377	-674.27008	-5.20863	1008.60144	-668.60266	235.74937	1026.93469	-849.88782	94.94928	1106.87817	-754.25568	-72.84582	871.47565	-669.73096	1.62965	808.59088	-755.33820	-60.47722	755.25531	-750.60034	-32.70358	616.11908				-751.46021	-29.47511	568.65674				-782.45380	-47.93104	485.94299				-641.52423	-59.63264	163.00839	-599.61761	-62.32162	157.22263	-546.21790	-10.26224	161.64217	-600.96967	38.64687	165.98834	-726.54810	68.91161	217.13011	-677.54187	56.79240	159.45909				-770.38269	288.43335	874.19220	-673.21295	214.73189	793.18549				-782.98889	258.35434	636.23309							-721.41901	199.68423	537.58093	-799.09131	265.46866	494.34375																																					
133	2.640	-208.17088	114.49574	1609.29175	-366.40625	-75.59997	1357.82935	-389.48602	276.62509	1372.35266	-450.60635	99.37678	1165.88318	-674.95764	-4.96025	1008.47485	-669.61011	235.63036	1026.73694	-850.39886	95.01286	1106.55286	-754.94043	-72.79576	871.65503	-670.47095	1.64614	808.32373	-755.91077	-60.41462	755.15216	-751.29205	-32.76094	616.20142				-752.14081	-29.87165	568.81415				-782.78912	-47.97776	485.84634				-641.39954	-59.63538	163.12573	-599.42841	-62.18716	157.71077	-546.15515	-10.13467	161.77995	-600.96771	38.61739	165.95180	-726.70807	68.67107	216.96974	-677.63000	56.81398	159.32800				-771.03589	288.64191	874.42236	-673.67126	214.71944	793.24231				-783.46985	258.31320	636.20538							-721.72833	199.72807	537.65314	-799.34949	265.93207	494.49783																																					
